<svg width="52" height="20" viewBox="0 0 52 20" fill="none" xmlns="http://www.w3.org/2000/svg">
<g clip-path="url(#clip0_251_12215)">
<path d="M36.5174 13.3706V19.637C36.5174 19.8217 36.3443 19.9998 36.1545 19.9998H30.9254C30.7408 19.9998 30.5539 19.8973 30.5539 19.6084V13.3737C30.5539 13.0853 30.4049 12.9636 30.1022 12.9636H23.2305L23.4353 7.0003H30.094C30.404 7.0003 30.5539 6.86174 30.5539 6.57946V0.557503C30.5539 0.217671 30.7005 0.00109863 31.1091 0.00109863H36.0637C36.342 0.00109863 36.5173 0.171875 36.5173 0.454601V6.57965C36.5173 6.83776 36.5886 7.0003 36.973 7.0003H42.3005V12.5921C42.3005 12.7766 42.1978 12.9635 41.9089 12.9635H36.9743C36.6324 12.9636 36.5173 13.1272 36.5173 13.3706L36.5174 13.3706Z" fill="white" fill-opacity="0.8"/>
<path d="M12.0217 19.9998H7.85538C7.50812 19.9998 7.37771 19.7064 7.26304 19.3517L0.511009 0.524288C0.416345 0.27532 0.388736 0.00200492 0.778256 0.00200492H6.14318C6.52763 1.31353e-05 6.65162 0.208618 6.78294 0.597236L9.77111 10.2843C9.85854 10.5788 10.0204 10.588 10.1136 10.2729L13.1355 0.448718C13.1957 0.220113 13.3672 0.00128296 13.6918 0.00128296H24.9774C25.2557 0.00128296 25.4309 0.172054 25.4309 0.454785V19.6372C25.4309 19.8219 25.2579 20 25.0681 20H19.8027C19.6181 20 19.4312 19.8975 19.4312 19.6086V1.14784C19.4312 0.937248 19.2478 0.848555 19.1322 1.14784L12.6215 19.3925C12.511 19.6947 12.3686 19.9998 12.0217 19.9998ZM51.157 0.0011908C51.4352 0.0011908 51.6105 0.171967 51.6105 0.454693V19.6371C51.6105 19.8218 51.4375 19.9999 51.2477 19.9999H46.0186C45.834 19.9999 45.6471 19.8974 45.6471 19.6085V7.44086C45.6471 7.17469 45.5114 7.00048 45.2385 7.00048H42.2991V3.24412C42.2991 2.94357 42.4191 2.80529 42.7 2.57994L45.4257 0.512706C45.829 0.215679 46.0161 0.00109863 46.4048 0.00109863H51.157L51.157 0.0011908Z" fill="white"/>
</g>
<defs>
<clipPath id="clip0_251_12215">
<rect width="51.2821" height="20" fill="white" transform="translate(0.359375)"/>
</clipPath>
</defs>
</svg>
