<svg width="20" height="20" viewBox="0 0 20 20" fill="none" xmlns="http://www.w3.org/2000/svg">
<path id="Vector" fill-rule="evenodd" clip-rule="evenodd" d="M16.37 4.95625C17.607 6.51835 18.2268 8.48053 18.1117 10.4698C17.9965 12.459 17.1545 14.3366 15.7455 15.7455C14.3366 17.1545 12.459 17.9965 10.4698 18.1117C8.48053 18.2268 6.51835 17.607 4.95625 16.37L16.37 4.95625ZM15.045 3.63L3.62875 15.0438C2.39177 13.4816 1.77193 11.5195 1.88707 9.53024C2.00221 7.54101 2.8443 5.66345 4.25325 4.2545C5.6622 2.84555 7.53976 2.00346 9.52899 1.88832C11.5182 1.77318 13.4804 2.39302 15.0425 3.63H15.045ZM10 0C12.6522 0 15.1957 1.05357 17.0711 2.92893C18.9464 4.8043 20 7.34783 20 10C20 12.6522 18.9464 15.1957 17.0711 17.0711C15.1957 18.9464 12.6522 20 10 20C7.34784 20 4.8043 18.9464 2.92893 17.0711C1.05357 15.1957 0 12.6522 0 10C0 7.34783 1.05357 4.8043 2.92893 2.92893C4.8043 1.05357 7.34784 0 10 0Z" fill="#0A86EF"/>
</svg>
