<svg width="24" height="24" viewBox="0 0 24 24" fill="none" xmlns="http://www.w3.org/2000/svg">
<g clip-path="url(#clip0_251_11592)">
<path fill-rule="evenodd" clip-rule="evenodd" d="M19.644 5.9475C21.1284 7.82202 21.8722 10.1766 21.734 12.5637C21.5959 14.9508 20.5853 17.2039 18.8946 18.8946C17.2039 20.5853 14.9508 21.5959 12.5637 21.734C10.1766 21.8722 7.82202 21.1284 5.9475 19.644L19.644 5.9475ZM18.054 4.356L4.3545 18.0525C2.87012 16.178 2.12631 13.8234 2.26448 11.4363C2.40265 9.04921 3.41316 6.79614 5.1039 5.1054C6.79464 3.41466 9.04772 2.40415 11.4348 2.26598C13.8219 2.12781 16.1765 2.87162 18.051 4.356H18.054ZM12 0C15.1826 0 18.2348 1.26428 20.4853 3.51472C22.7357 5.76515 24 8.8174 24 12C24 15.1826 22.7357 18.2348 20.4853 20.4853C18.2348 22.7357 15.1826 24 12 24C8.8174 24 5.76516 22.7357 3.51472 20.4853C1.26428 18.2348 0 15.1826 0 12C0 8.8174 1.26428 5.76515 3.51472 3.51472C5.76516 1.26428 8.8174 0 12 0Z" fill="#0A86EF"/>
</g>
<defs>
<clipPath id="clip0_251_11592">
<rect width="24" height="24" fill="white" transform="matrix(0 -1 1 0 0 24)"/>
</clipPath>
</defs>
</svg>
