<svg width="20" height="20" viewBox="0 0 20 20" fill="none" xmlns="http://www.w3.org/2000/svg">
<g id="dollar icon" clip-path="url(#clip0_269_6035)">
<path id="Vector" d="M10.4778 8.65555C7.70333 7.93444 6.81111 7.18889 6.81111 6.02778C6.81111 4.69556 8.04556 3.76667 10.1111 3.76667C11.8467 3.76667 12.7144 4.42667 13.0322 5.47778C13.1789 5.96667 13.5822 6.33333 14.0956 6.33333H14.4622C15.2689 6.33333 15.8433 5.53889 15.5622 4.78111C15.0489 3.33889 13.8511 2.14111 11.9444 1.67667V0.833333C11.9444 -0.181111 11.1256 -1 10.1111 -1C9.09667 -1 8.27778 -0.181111 8.27778 0.833333V1.64C5.90667 2.15333 4 3.69333 4 6.05222C4 8.87556 6.33444 10.2811 9.74444 11.1C12.8 11.8333 13.4111 12.9089 13.4111 14.0456C13.4111 14.8889 12.8122 16.2333 10.1111 16.2333C8.09444 16.2333 7.05556 15.5122 6.65222 14.4856C6.46889 14.0089 6.05333 13.6667 5.55222 13.6667H5.21C4.39111 13.6667 3.81667 14.4978 4.12222 15.2556C4.81889 16.9544 6.44444 17.9567 8.27778 18.3478V19.1667C8.27778 20.1811 9.09667 21 10.1111 21C11.1256 21 11.9444 20.1811 11.9444 19.1667V18.3722C14.3278 17.92 16.2222 16.5389 16.2222 14.0333C16.2222 10.5622 13.2522 9.37667 10.4778 8.65555Z" fill="#0A86EF"/>
</g>
<defs>
<clipPath id="clip0_269_6035">
<rect width="20" height="20" fill="white"/>
</clipPath>
</defs>
</svg>
