<svg width="24" height="24" viewBox="0 0 24 24" fill="none" xmlns="http://www.w3.org/2000/svg">
<path d="M12.4778 10.6556C9.70333 9.93444 8.81111 9.18889 8.81111 8.02778C8.81111 6.69556 10.0456 5.76667 12.1111 5.76667C13.8467 5.76667 14.7144 6.42667 15.0322 7.47778C15.1789 7.96667 15.5822 8.33333 16.0956 8.33333H16.4622C17.2689 8.33333 17.8433 7.53889 17.5622 6.78111C17.0489 5.33889 15.8511 4.14111 13.9444 3.67667V2.83333C13.9444 1.81889 13.1256 1 12.1111 1C11.0967 1 10.2778 1.81889 10.2778 2.83333V3.64C7.90667 4.15333 6 5.69333 6 8.05222C6 10.8756 8.33444 12.2811 11.7444 13.1C14.8 13.8333 15.4111 14.9089 15.4111 16.0456C15.4111 16.8889 14.8122 18.2333 12.1111 18.2333C10.0944 18.2333 9.05556 17.5122 8.65222 16.4856C8.46889 16.0089 8.05333 15.6667 7.55222 15.6667H7.21C6.39111 15.6667 5.81667 16.4978 6.12222 17.2556C6.81889 18.9544 8.44444 19.9567 10.2778 20.3478V21.1667C10.2778 22.1811 11.0967 23 12.1111 23C13.1256 23 13.9444 22.1811 13.9444 21.1667V20.3722C16.3278 19.92 18.2222 18.5389 18.2222 16.0333C18.2222 12.5622 15.2522 11.3767 12.4778 10.6556Z" fill="#0A86EF"/>
</svg>
