<svg width="18" height="24" viewBox="0 0 18 24" fill="none" xmlns="http://www.w3.org/2000/svg">
<g id="lightning icon" clip-path="url(#clip0_251_11586)">
<path id="Vector" d="M0 12L1.33594 1.3125C1.42969 0.5625 2.06719 0 2.82656 0H10.7297C11.4328 0 12 0.567188 12 1.27031C12 1.42031 11.9719 1.575 11.9203 1.71563L9.75 7.5H16.2797C17.2266 7.5 18 8.26875 18 9.22031C18 9.56719 17.8969 9.90469 17.7 10.1906L8.69062 23.3625C8.41406 23.7656 7.95937 24.0047 7.47656 24.0047H7.34063C6.60469 24.0047 6.00469 23.4047 6.00469 22.6688C6.00469 22.5609 6.01875 22.4531 6.04688 22.3453L8.25 13.5H1.5C0.670312 13.5 0 12.8297 0 12Z" fill="#0A86EF"/>
</g>
<defs>
<clipPath id="clip0_251_11586">
<rect width="18" height="24" fill="white"/>
</clipPath>
</defs>
</svg>
