<svg width="38" height="42" viewBox="0 0 38 42" fill="none" xmlns="http://www.w3.org/2000/svg">
<g id="android 1" clip-path="url(#clip0_251_11620)">
<path id="Vector" d="M13.0882 25.5111C14.536 25.5111 15.7097 26.6848 15.7097 28.1327V39.3784C15.7097 40.8263 14.536 41.9998 13.0882 41.9998C11.6405 41.9998 10.4668 40.8263 10.4668 39.3784V28.1327C10.4668 26.685 11.6405 25.5113 13.0882 25.5113V25.5111Z" fill="white"/>
<path id="Vector_2" d="M7.10214 11.9906C7.09348 12.09 7.08594 12.1905 7.08594 12.2921V29.3305C7.08594 31.1629 8.53635 32.6391 10.3369 32.6391H27.6637C29.4645 32.6391 30.9149 31.1627 30.9149 29.3305V12.2921C30.9149 12.1905 30.9112 12.0896 30.9027 11.9906H7.10214Z" fill="white"/>
<path id="Vector_3" d="M24.9137 25.5111C26.3615 25.5111 27.5352 26.6848 27.5352 28.1327V39.3784C27.5352 40.8263 26.3615 41.9998 24.9137 41.9998C23.466 41.9998 22.2923 40.8263 22.2923 39.3784V28.1327C22.2923 26.685 23.466 25.5113 24.9137 25.5113V25.5111ZM2.87351 13.5069C4.32116 13.5069 5.49489 14.6806 5.49489 16.1284V27.3742C5.49489 28.8221 4.32116 29.9958 2.87351 29.9958C1.42568 29.9958 0.251953 28.8221 0.251953 27.3744V16.1286C0.251769 14.6808 1.4255 13.5069 2.87351 13.5069ZM35.1269 13.5069C36.5746 13.5069 37.7483 14.6806 37.7483 16.1284V27.3742C37.7483 28.8221 36.5746 29.9958 35.1269 29.9958C33.6791 29.9958 32.5054 28.8221 32.5054 27.3744V16.1286C32.5054 14.6808 33.6791 13.5069 35.1269 13.5069ZM7.17835 10.8713C7.25125 5.63779 11.8191 1.34676 17.6826 0.78125H20.3173C26.1811 1.34694 30.7486 5.63816 30.8215 10.8713H7.17835Z" fill="white"/>
<path id="Vector_4" d="M8.0918 0.276123L10.8571 5.06602M29.912 0.276123L27.1465 5.06602" stroke="white" stroke-width="0.420767" stroke-linecap="round" stroke-linejoin="round"/>
<path id="Vector_5" d="M15.4801 6.18127C15.4823 6.91282 14.8768 7.50761 14.1276 7.50963C13.3787 7.51147 12.7698 6.92019 12.7676 6.18863V6.18127C12.7656 5.44953 13.371 4.85494 14.1201 4.85291C14.8689 4.85089 15.4779 5.44198 15.4801 6.17391V6.18127ZM25.604 6.18127C25.6062 6.91282 25.0008 7.50761 24.2516 7.50963C23.5027 7.51147 22.8938 6.92019 22.8915 6.18863V6.18127C22.8895 5.44953 23.495 4.85494 24.244 4.85291C24.9929 4.85089 25.6018 5.44198 25.604 6.17391V6.18127Z" fill="#0A0E12"/>
</g>
<defs>
<clipPath id="clip0_251_11620">
<rect width="37.4976" height="42" fill="white" transform="translate(0.251953)"/>
</clipPath>
</defs>
</svg>
