<svg width="24" height="26" viewBox="0 0 24 26" fill="none" xmlns="http://www.w3.org/2000/svg">
<g id="android 1" clip-path="url(#clip0_269_5959)">
<path id="Vector" d="M8.33955 15.7926C9.23583 15.7926 9.96242 16.5192 9.96242 17.4155V24.3771C9.96242 25.2734 9.23583 25.9999 8.33955 25.9999C7.44339 25.9999 6.7168 25.2734 6.7168 24.3771V17.4155C6.7168 16.5193 7.44339 15.7927 8.33955 15.7927V15.7926Z" fill="white"/>
<path id="Vector_2" d="M4.63503 7.42273C4.62967 7.48427 4.625 7.54649 4.625 7.60939V18.157C4.625 19.2913 5.52287 20.2051 6.63749 20.2051H17.3636C18.4784 20.2051 19.3762 19.2912 19.3762 18.157V7.60939C19.3762 7.54649 19.374 7.48404 19.3687 7.42273H4.63503Z" fill="white"/>
<path id="Vector_3" d="M15.6613 15.7926C16.5576 15.7926 17.2842 16.5192 17.2842 17.4155V24.3771C17.2842 25.2734 16.5576 25.9999 15.6613 25.9999C14.7652 25.9999 14.0386 25.2734 14.0386 24.3771V17.4155C14.0386 16.5193 14.7652 15.7927 15.6613 15.7927V15.7926ZM2.0174 8.36142C2.91356 8.36142 3.64016 9.08801 3.64016 9.98429V16.946C3.64016 17.8422 2.91356 18.5688 2.0174 18.5688C1.12112 18.5688 0.394531 17.8422 0.394531 16.9461V9.9844C0.394417 9.08813 1.12101 8.36142 2.0174 8.36142ZM21.9838 8.36142C22.88 8.36142 23.6066 9.08801 23.6066 9.98429V16.946C23.6066 17.8422 22.88 18.5688 21.9838 18.5688C21.0875 18.5688 20.3609 17.8422 20.3609 16.9461V9.9844C20.3609 9.08813 21.0875 8.36142 21.9838 8.36142ZM4.6823 6.72989C4.72743 3.49007 7.55517 0.83372 11.1849 0.483643H12.8159C16.4459 0.833834 19.2734 3.4903 19.3186 6.72989H4.6823Z" fill="white"/>
<path id="Vector_4" d="M5.24805 0.170959L6.95992 3.13614M18.7558 0.170959L17.0438 3.13614" stroke="white" stroke-width="0.420767" stroke-linecap="round" stroke-linejoin="round"/>
<path id="Vector_5" d="M9.82175 3.82647C9.82311 4.27934 9.44831 4.64754 8.9845 4.64879C8.52092 4.64993 8.14395 4.2839 8.14258 3.83103V3.82647C8.14133 3.37349 8.51613 3.00541 8.97983 3.00415C9.44341 3.0029 9.82038 3.36882 9.82175 3.82191V3.82647ZM16.089 3.82647C16.0903 4.27934 15.7155 4.64754 15.2517 4.64879C14.7881 4.64993 14.4112 4.2839 14.4098 3.83103V3.82647C14.4085 3.37349 14.7833 3.00541 15.247 3.00415C15.7106 3.0029 16.0876 3.36882 16.089 3.82191V3.82647Z" fill="#0A0E12"/>
</g>
<defs>
<clipPath id="clip0_269_5959">
<rect width="23.2128" height="26" fill="white" transform="translate(0.394531)"/>
</clipPath>
</defs>
</svg>
