<svg width="50" height="50" viewBox="0 0 50 50" fill="none" xmlns="http://www.w3.org/2000/svg">
<mask id="mask0_251_11650" style="mask-type:luminance" maskUnits="userSpaceOnUse" x="0" y="0" width="50" height="50">
<path d="M25 48C31.1 48 36.9501 45.5768 41.2635 41.2635C45.5768 36.9501 48 31.1 48 25C48 18.9 45.5768 13.0499 41.2635 8.73654C36.9501 4.42321 31.1 2 25 2C18.9 2 13.0499 4.42321 8.73654 8.73654C4.42321 13.0499 2 18.9 2 25C2 31.1 4.42321 36.9501 8.73654 41.2635C13.0499 45.5768 18.9 48 25 48Z" stroke="white" stroke-width="3"/>
</mask>
<g mask="url(#mask0_251_11650)">
<path d="M25 48C31.1 48 36.9501 45.5768 41.2635 41.2635C45.5768 36.9501 48 31.1 48 25C48 18.9 45.5768 13.0499 41.2635 8.73654C36.9501 4.42321 31.1 2 25 2C18.9 2 13.0499 4.42321 8.73654 8.73654C4.42321 13.0499 2 18.9 2 25C2 31.1 4.42321 36.9501 8.73654 41.2635C13.0499 45.5768 18.9 48 25 48Z" stroke="white" stroke-width="3"/>
</g>
<mask id="mask1_251_11650" style="mask-type:luminance" maskUnits="userSpaceOnUse" x="12" y="12" width="26" height="26">
<path d="M25.0009 35.7333C30.9288 35.7333 35.7342 30.9278 35.7342 24.9999C35.7342 19.0721 30.9288 14.2666 25.0009 14.2666C19.0731 14.2666 14.2676 19.0721 14.2676 24.9999C14.2676 30.9278 19.0731 35.7333 25.0009 35.7333Z" stroke="white" stroke-width="3"/>
</mask>
<g mask="url(#mask1_251_11650)">
<path d="M25.0009 35.7333C30.9288 35.7333 35.7342 30.9278 35.7342 24.9999C35.7342 19.0721 30.9288 14.2666 25.0009 14.2666C19.0731 14.2666 14.2676 19.0721 14.2676 24.9999C14.2676 30.9278 19.0731 35.7333 25.0009 35.7333Z" stroke="white" stroke-width="3"/>
</g>
<mask id="mask2_251_11650" style="mask-type:luminance" maskUnits="userSpaceOnUse" x="15" y="15" width="20" height="20">
<path d="M25.0007 32.6666C29.2348 32.6666 32.6673 29.2341 32.6673 24.9999C32.6673 20.7657 29.2348 17.3333 25.0007 17.3333C20.7665 17.3333 17.334 20.7657 17.334 24.9999C17.334 29.2341 20.7665 32.6666 25.0007 32.6666Z" stroke="white" stroke-width="3"/>
</mask>
<g mask="url(#mask2_251_11650)">
<path d="M25.0007 32.6666C29.2348 32.6666 32.6673 29.2341 32.6673 24.9999C32.6673 20.7657 29.2348 17.3333 25.0007 17.3333C20.7665 17.3333 17.334 20.7657 17.334 24.9999C17.334 29.2341 20.7665 32.6666 25.0007 32.6666Z" stroke="white" stroke-width="3"/>
</g>
<mask id="path-7-inside-1_251_11650" fill="white">
<path d="M24.9991 14.2666H45.3158V15.0333H24.9991V14.2666ZM34.2949 30.3666L24.1366 47.9616L23.4734 47.5783L33.6318 29.9833L34.2949 30.3666ZM15.7033 30.3666L5.54492 12.7716L6.20809 12.3883L16.3664 29.9833L15.7033 30.3666Z"/>
</mask>
<path d="M24.9991 14.2666H45.3158V15.0333H24.9991V14.2666ZM34.2949 30.3666L24.1366 47.9616L23.4734 47.5783L33.6318 29.9833L34.2949 30.3666ZM15.7033 30.3666L5.54492 12.7716L6.20809 12.3883L16.3664 29.9833L15.7033 30.3666Z" fill="white"/>
<path d="M24.9991 14.2666V12.2666H22.9991V14.2666H24.9991ZM45.3158 14.2666H47.3158V12.2666H45.3158V14.2666ZM45.3158 15.0333V17.0333H47.3158V15.0333H45.3158ZM24.9991 15.0333H22.9991V17.0333H24.9991V15.0333ZM34.2949 30.3666L36.027 31.3666L37.0264 29.6355L35.2958 28.6351L34.2949 30.3666ZM24.1366 47.9616L23.1357 49.6932L24.8681 50.6946L25.8686 48.9616L24.1366 47.9616ZM23.4734 47.5783L21.7414 46.5783L20.7419 48.3095L22.4725 49.3098L23.4734 47.5783ZM33.6318 29.9833L34.6326 28.2518L32.9002 27.2504L31.8997 28.9833L33.6318 29.9833ZM15.7033 30.3666L13.9712 31.3666L14.9717 33.0996L16.7041 32.0982L15.7033 30.3666ZM5.54492 12.7716L4.54403 11.0401L2.8134 12.0405L3.81286 13.7716L5.54492 12.7716ZM6.20809 12.3883L7.94015 11.3883L6.93964 9.65536L5.2072 10.6568L6.20809 12.3883ZM16.3664 29.9833L17.3673 31.7148L19.0979 30.7145L18.0985 28.9833L16.3664 29.9833ZM24.9991 16.2666H45.3158V12.2666H24.9991V16.2666ZM43.3158 14.2666V15.0333H47.3158V14.2666H43.3158ZM45.3158 13.0333H24.9991V17.0333H45.3158V13.0333ZM26.9991 15.0333V14.2666H22.9991V15.0333H26.9991ZM32.5629 29.3666L22.4045 46.9617L25.8686 48.9616L36.027 31.3666L32.5629 29.3666ZM25.1375 46.2301L24.4743 45.8468L22.4725 49.3098L23.1357 49.6932L25.1375 46.2301ZM25.2055 48.5783L35.3638 30.9833L31.8997 28.9833L21.7414 46.5783L25.2055 48.5783ZM32.6309 31.7148L33.294 32.0982L35.2958 28.6351L34.6326 28.2518L32.6309 31.7148ZM17.4353 29.3666L7.27698 11.7716L3.81286 13.7716L13.9712 31.3666L17.4353 29.3666ZM6.54581 14.5032L7.20898 14.1198L5.2072 10.6568L4.54403 11.0401L6.54581 14.5032ZM4.47603 13.3883L14.6344 30.9833L18.0985 28.9833L7.94015 11.3883L4.47603 13.3883ZM15.3655 28.2518L14.7024 28.6351L16.7041 32.0982L17.3673 31.7148L15.3655 28.2518Z" fill="white" mask="url(#path-7-inside-1_251_11650)"/>
</svg>
