<svg width="28" height="28" viewBox="0 0 28 28" fill="none" xmlns="http://www.w3.org/2000/svg">
<mask id="mask0_269_5989" style="mask-type:luminance" maskUnits="userSpaceOnUse" x="0" y="0" width="28" height="28">
<path d="M14 27C17.4478 27 20.7544 25.6304 23.1924 23.1924C25.6304 20.7544 27 17.4478 27 14C27 10.5522 25.6304 7.24558 23.1924 4.80761C20.7544 2.36964 17.4478 1 14 1C10.5522 1 7.24558 2.36964 4.80761 4.80761C2.36964 7.24558 1 10.5522 1 14C1 17.4478 2.36964 20.7544 4.80761 23.1924C7.24558 25.6304 10.5522 27 14 27Z" stroke="white" stroke-width="2"/>
</mask>
<g mask="url(#mask0_269_5989)">
<path d="M14 27C17.4478 27 20.7544 25.6304 23.1924 23.1924C25.6304 20.7544 27 17.4478 27 14C27 10.5522 25.6304 7.24558 23.1924 4.80761C20.7544 2.36964 17.4478 1 14 1C10.5522 1 7.24558 2.36964 4.80761 4.80761C2.36964 7.24558 1 10.5522 1 14C1 17.4478 2.36964 20.7544 4.80761 23.1924C7.24558 25.6304 10.5522 27 14 27Z" stroke="white" stroke-width="2"/>
</g>
<mask id="mask1_269_5989" style="mask-type:luminance" maskUnits="userSpaceOnUse" x="6" y="6" width="16" height="16">
<path d="M14.0003 20.0666C17.3508 20.0666 20.0669 17.3504 20.0669 13.9999C20.0669 10.6494 17.3508 7.93323 14.0003 7.93323C10.6497 7.93323 7.93359 10.6494 7.93359 13.9999C7.93359 17.3504 10.6497 20.0666 14.0003 20.0666Z" stroke="white" stroke-width="2"/>
</mask>
<g mask="url(#mask1_269_5989)">
<path d="M14.0003 20.0666C17.3508 20.0666 20.0669 17.3505 20.0669 14C20.0669 10.6494 17.3508 7.93329 14.0003 7.93329C10.6497 7.93329 7.93359 10.6494 7.93359 14C7.93359 17.3505 10.6497 20.0666 14.0003 20.0666Z" stroke="white" stroke-width="2"/>
</g>
<mask id="mask2_269_5989" style="mask-type:luminance" maskUnits="userSpaceOnUse" x="8" y="8" width="12" height="12">
<path d="M13.9993 18.3333C16.3926 18.3333 18.3327 16.3932 18.3327 14C18.3327 11.6067 16.3926 9.66663 13.9993 9.66663C11.6061 9.66663 9.66602 11.6067 9.66602 14C9.66602 16.3932 11.6061 18.3333 13.9993 18.3333Z" stroke="white" stroke-width="2"/>
</mask>
<g mask="url(#mask2_269_5989)">
<path d="M13.9993 18.3333C16.3926 18.3333 18.3327 16.3932 18.3327 14C18.3327 11.6067 16.3926 9.66663 13.9993 9.66663C11.6061 9.66663 9.66602 11.6067 9.66602 14C9.66602 16.3932 11.6061 18.3333 13.9993 18.3333Z" stroke="white" stroke-width="2"/>
</g>
<mask id="path-7-inside-1_269_5989" fill="white">
<path d="M13.9997 7.93337H25.4831V8.3667H13.9997V7.93337ZM19.2539 17.0334L13.5122 26.9784L13.1374 26.7617L18.8791 16.8167L19.2539 17.0334ZM8.74557 17.0334L3.00391 7.08837L3.37874 6.8717L9.12041 16.8167L8.74557 17.0334Z"/>
</mask>
<path d="M13.9997 7.93337H25.4831V8.3667H13.9997V7.93337ZM19.2539 17.0334L13.5122 26.9784L13.1374 26.7617L18.8791 16.8167L19.2539 17.0334ZM8.74557 17.0334L3.00391 7.08837L3.37874 6.8717L9.12041 16.8167L8.74557 17.0334Z" fill="white"/>
<path d="M13.9997 7.93337V5.93337H11.9997V7.93337H13.9997ZM25.4831 7.93337H27.4831V5.93337H25.4831V7.93337ZM25.4831 8.3667V10.3667H27.4831V8.3667H25.4831ZM13.9997 8.3667H11.9997V10.3667H13.9997V8.3667ZM19.2539 17.0334L20.986 18.0334L21.9854 16.3022L20.2548 15.3018L19.2539 17.0334ZM13.5122 26.9784L12.5114 28.7099L14.2438 29.7113L15.2443 27.9784L13.5122 26.9784ZM13.1374 26.7617L11.4053 25.7617L10.4059 27.4929L12.1365 28.4932L13.1374 26.7617ZM18.8791 16.8167L19.88 15.0852L18.1475 14.0838L17.147 15.8167L18.8791 16.8167ZM8.74557 17.0334L7.01352 18.0334L8.01402 19.7663L9.74646 18.7649L8.74557 17.0334ZM3.00391 7.08837L2.00302 5.35683L0.27238 6.3572L1.27185 8.08836L3.00391 7.08837ZM3.37874 6.8717L5.1108 5.87171L4.11029 4.13876L2.37785 5.14017L3.37874 6.8717ZM9.12041 16.8167L10.1213 18.5482L11.8519 17.5479L10.8525 15.8167L9.12041 16.8167ZM13.9997 9.93337H25.4831V5.93337H13.9997V9.93337ZM23.4831 7.93337V8.3667H27.4831V7.93337H23.4831ZM25.4831 6.3667H13.9997V10.3667H25.4831V6.3667ZM15.9997 8.3667V7.93337H11.9997V8.3667H15.9997ZM17.5218 16.0334L11.7802 25.9784L15.2443 27.9784L20.986 18.0334L17.5218 16.0334ZM14.5131 25.2468L14.1383 25.0302L12.1365 28.4932L12.5114 28.7099L14.5131 25.2468ZM14.8695 27.7617L20.6111 17.8167L17.147 15.8167L11.4053 25.7617L14.8695 27.7617ZM17.8782 18.5482L18.253 18.7649L20.2548 15.3018L19.88 15.0852L17.8782 18.5482ZM10.4776 16.0334L4.73596 6.08838L1.27185 8.08836L7.01352 18.0334L10.4776 16.0334ZM4.0048 8.81991L4.37963 8.60324L2.37785 5.14017L2.00302 5.35683L4.0048 8.81991ZM1.64668 7.87169L7.38835 17.8167L10.8525 15.8167L5.1108 5.87171L1.64668 7.87169ZM8.11952 15.0852L7.74468 15.3018L9.74646 18.7649L10.1213 18.5482L8.11952 15.0852Z" fill="white" mask="url(#path-7-inside-1_269_5989)"/>
</svg>
