<svg width="52" height="32" viewBox="0 0 52 32" fill="none" xmlns="http://www.w3.org/2000/svg">
<g id="apple-ios 1" clip-path="url(#clip0_251_11639)">
<path id="Vector" d="M2.61668 2.60568C2.61668 3.15896 2.27978 3.56825 1.70183 3.56825C1.22054 3.56825 0.859375 3.15896 0.859375 2.60568C0.859375 2.07586 1.24441 1.6427 1.74996 1.6427C2.27978 1.6427 2.61668 2.07586 2.61668 2.60568ZM1.28445 31.5375V9.40639H2.19161V31.5375H1.28445ZM32.3647 15.7691C32.3647 26.9269 26.1707 31.999 19.3906 31.999C12.4645 31.999 6.85565 26.5127 6.85565 16.2306C6.85565 5.67298 12.6598 0.00146493 19.8783 0.00146493C26.9504 0.000656045 32.3647 5.57955 32.3647 15.7691ZM7.77495 15.9996C7.77495 24.4598 11.8752 31.032 19.4334 31.032C27.0443 31.032 31.4094 24.2576 31.4094 15.9034C31.4094 8.15626 27.9118 1.08618 19.9305 1.08618C11.9492 1.08618 7.77495 7.74292 7.77495 15.9996ZM35.6941 29.1396C37.216 30.1539 39.8429 31.1335 42.1021 31.1335C46.39 31.1335 50.2035 28.1337 50.2035 23.7184C50.2035 19.621 47.6632 17.4831 43.3502 15.6466C39.4902 14.0029 36.0197 12.2189 36.0197 7.83877C36.0197 3.27463 39.6156 0.0463582 44.5029 0.0463582C47.1309 0.0463582 49.1135 0.784063 50.0357 1.42956L49.6692 2.2255C48.8854 1.67263 46.7669 0.968085 44.4624 0.968085C39.2973 0.968085 37.0474 4.87097 37.0474 7.74413C37.0474 11.7125 40.1236 13.0395 44.0887 14.9299C48.699 17.1887 51.1422 19.1806 51.1422 23.515C51.1422 28.1718 47.8229 31.9517 41.9213 31.9517C39.4773 31.9517 36.6652 31.1222 35.282 30.0613L35.6941 29.1396Z" fill="white"/>
</g>
<defs>
<clipPath id="clip0_251_11639">
<rect width="50.2828" height="32" fill="white" transform="translate(0.859375)"/>
</clipPath>
</defs>
</svg>
