<svg width="30" height="18" viewBox="0 0 30 18" fill="none" xmlns="http://www.w3.org/2000/svg">
<g id="apple-ios 1" clip-path="url(#clip0_269_5978)">
<path id="Vector" d="M1.84591 1.46603C1.84591 1.77725 1.6564 2.00748 1.3313 2.00748C1.06058 2.00748 0.857422 1.77725 0.857422 1.46603C0.857422 1.168 1.074 0.924353 1.35838 0.924353C1.6564 0.924353 1.84591 1.168 1.84591 1.46603ZM1.09652 17.7402V5.29143H1.60681V17.7402H1.09652ZM18.5792 8.87045C18.5792 15.1467 15.095 17.9998 11.2812 17.9998C7.38529 17.9998 4.23033 14.9138 4.23033 9.13003C4.23033 3.19138 7.49517 0.00115972 11.5556 0.00115972C15.5336 0.000704718 18.5792 3.13883 18.5792 8.87045ZM4.74744 9.00013C4.74744 13.759 7.05383 17.4558 11.3053 17.4558C15.5864 17.4558 18.0418 13.6452 18.0418 8.94598C18.0418 4.58823 16.0744 0.611313 11.5849 0.611313C7.09546 0.611313 4.74744 4.35573 4.74744 9.00013ZM20.452 16.3914C21.308 16.9619 22.7856 17.5129 24.0565 17.5129C26.4684 17.5129 28.6135 15.8256 28.6135 13.342C28.6135 11.0372 27.1846 9.8346 24.7585 8.80152C22.5873 7.87696 20.6351 6.87346 20.6351 4.40964C20.6351 1.84231 22.6578 0.0264122 25.4069 0.0264122C26.8852 0.0264122 28.0004 0.441371 28.5191 0.80446L28.313 1.25218C27.8721 0.941188 26.6804 0.544883 25.3841 0.544883C22.4787 0.544883 21.2132 2.74025 21.2132 4.35641C21.2132 6.58863 22.9435 7.33506 25.1739 8.39839C27.7672 9.66898 29.1415 10.7894 29.1415 13.2275C29.1415 15.847 27.2744 17.9732 23.9548 17.9732C22.58 17.9732 20.9982 17.5066 20.2201 16.9098L20.452 16.3914Z" fill="white"/>
</g>
<defs>
<clipPath id="clip0_269_5978">
<rect width="28.2841" height="18" fill="white" transform="translate(0.857422)"/>
</clipPath>
</defs>
</svg>
