<svg width="22" height="22" viewBox="0 0 22 22" fill="none" xmlns="http://www.w3.org/2000/svg">
<path d="M11.0007 1.87C5.95898 1.87 1.83398 5.98583 1.83398 11.055C1.83398 15.6383 5.18898 19.4425 9.57065 20.13V13.7133H7.24232V11.055H9.57065V9.02916C9.57065 6.72833 10.9365 5.46333 13.0357 5.46333C14.0348 5.46333 15.0798 5.6375 15.0798 5.6375V7.90166H13.9248C12.7881 7.90166 12.4307 8.6075 12.4307 9.33166V11.055H14.979L14.5665 13.7133H12.4307V20.13C14.5907 19.7889 16.5577 18.6867 17.9764 17.0226C19.3952 15.3584 20.1722 13.2418 20.1673 11.055C20.1673 5.98583 16.0423 1.87 11.0007 1.87Z" fill="white"/>
</svg>
