<svg width="27" height="26" viewBox="0 0 27 26" fill="none" xmlns="http://www.w3.org/2000/svg">
<path d="M18.9093 5.91508C18.6522 5.91508 18.4009 5.99133 18.1871 6.13417C17.9733 6.27702 17.8067 6.48005 17.7083 6.71759C17.6099 6.95514 17.5842 7.21652 17.6343 7.4687C17.6845 7.72087 17.8083 7.95251 17.9901 8.13432C18.1719 8.31613 18.4036 8.43994 18.6557 8.4901C18.9079 8.54026 19.1693 8.51452 19.4068 8.41612C19.6444 8.31773 19.8474 8.15111 19.9903 7.93732C20.1331 7.72354 20.2094 7.4722 20.2094 7.21508C20.2094 6.8703 20.0724 6.53964 19.8286 6.29584C19.5848 6.05205 19.2541 5.91508 18.9093 5.91508ZM23.8927 8.53675C23.8716 7.6379 23.7033 6.7486 23.3944 5.90425C23.1189 5.18181 22.6902 4.52763 22.1377 3.98675C21.6012 3.43146 20.9455 3.00544 20.2202 2.74091C19.3781 2.42259 18.4878 2.25039 17.5877 2.23175C16.4394 2.16675 16.071 2.16675 13.1243 2.16675C10.1777 2.16675 9.80935 2.16675 8.66102 2.23175C7.76093 2.25039 6.87064 2.42259 6.02852 2.74091C5.3045 3.00812 4.64936 3.43377 4.11102 3.98675C3.55573 4.52319 3.12971 5.17889 2.86518 5.90425C2.54686 6.74637 2.37466 7.63666 2.35602 8.53675C2.29102 9.68508 2.29102 10.0534 2.29102 13.0001C2.29102 15.9467 2.29102 16.3151 2.35602 17.4634C2.37466 18.3635 2.54686 19.2538 2.86518 20.0959C3.12971 20.8213 3.55573 21.477 4.11102 22.0134C4.64936 22.5664 5.3045 22.992 6.02852 23.2592C6.87064 23.5776 7.76093 23.7498 8.66102 23.7684C9.80935 23.8334 10.1777 23.8334 13.1243 23.8334C16.071 23.8334 16.4394 23.8334 17.5877 23.7684C18.4878 23.7498 19.3781 23.5776 20.2202 23.2592C20.9455 22.9947 21.6012 22.5687 22.1377 22.0134C22.6926 21.4745 23.1217 20.8198 23.3944 20.0959C23.7033 19.2516 23.8716 18.3623 23.8927 17.4634C23.8927 16.3151 23.9577 15.9467 23.9577 13.0001C23.9577 10.0534 23.9577 9.68508 23.8927 8.53675ZM21.9427 17.3334C21.9348 18.0211 21.8102 18.7024 21.5743 19.3484C21.4014 19.8199 21.1236 20.2459 20.7618 20.5942C20.4105 20.9523 19.9853 21.2296 19.516 21.4067C18.87 21.6426 18.1887 21.7672 17.501 21.7751C16.4177 21.8292 16.0168 21.8401 13.1677 21.8401C10.3185 21.8401 9.91768 21.8401 8.83435 21.7751C8.12031 21.7885 7.40933 21.6785 6.73268 21.4501C6.28395 21.2638 5.87832 20.9873 5.54102 20.6376C5.18144 20.2896 4.9071 19.8632 4.73935 19.3917C4.47486 18.7365 4.32816 18.0397 4.30602 17.3334C4.30602 16.2501 4.24102 15.8492 4.24102 13.0001C4.24102 10.1509 4.24102 9.75008 4.30602 8.66675C4.31087 7.96373 4.43921 7.26702 4.68518 6.60841C4.8759 6.15115 5.16864 5.74354 5.54102 5.41675C5.87015 5.04426 6.27691 4.74844 6.73268 4.55008C7.39303 4.3118 8.08901 4.18725 8.79102 4.18175C9.87435 4.18175 10.2752 4.11675 13.1243 4.11675C15.9735 4.11675 16.3743 4.11675 17.4577 4.18175C18.1454 4.18964 18.8267 4.31418 19.4727 4.55008C19.965 4.73279 20.4068 5.02983 20.7618 5.41675C21.1169 5.74952 21.3943 6.15638 21.5743 6.60841C21.8151 7.26809 21.9397 7.96451 21.9427 8.66675C21.9968 9.75008 22.0077 10.1509 22.0077 13.0001C22.0077 15.8492 21.9968 16.2501 21.9427 17.3334ZM13.1243 7.44258C12.0256 7.44472 10.9522 7.77248 10.0397 8.38445C9.12722 8.99642 8.41659 9.86513 7.99762 10.8808C7.57865 11.8965 7.47013 13.0136 7.68579 14.0909C7.90145 15.1683 8.4316 16.1575 9.20926 16.9336C9.98692 17.7098 10.9772 18.238 12.0549 18.4516C13.1327 18.6651 14.2496 18.5544 15.2644 18.1335C16.2793 17.7125 17.1466 17.0002 17.7568 16.0865C18.367 15.1728 18.6927 14.0988 18.6927 13.0001C18.6941 12.2689 18.551 11.5447 18.2715 10.8691C17.9921 10.1935 17.5818 9.57979 17.0643 9.0633C16.5468 8.54681 15.9323 8.13773 15.2561 7.85959C14.58 7.58144 13.8555 7.43972 13.1243 7.44258ZM13.1243 16.6076C12.4109 16.6076 11.7134 16.396 11.1201 15.9996C10.5269 15.6032 10.0645 15.0398 9.79145 14.3806C9.51841 13.7214 9.44697 12.9961 9.58617 12.2963C9.72536 11.5965 10.0689 10.9537 10.5735 10.4492C11.078 9.94468 11.7208 9.60109 12.4206 9.4619C13.1203 9.3227 13.8457 9.39414 14.5049 9.66719C15.1641 9.94023 15.7275 10.4026 16.1239 10.9959C16.5203 11.5891 16.7318 12.2866 16.7318 13.0001C16.7318 13.4738 16.6385 13.9429 16.4572 14.3806C16.276 14.8183 16.0102 15.216 15.6752 15.551C15.3403 15.886 14.9426 16.1517 14.5049 16.333C14.0672 16.5143 13.5981 16.6076 13.1243 16.6076Z" fill="white"/>
</svg>
