<svg width="27" height="26" viewBox="0 0 27 26" fill="none" xmlns="http://www.w3.org/2000/svg">
<g id="ri:threads-fill">
<path id="Vector" d="M18.9715 12.0337C18.796 8.79775 17.028 6.94525 14.0597 6.92683C12.27 6.916 10.7739 7.67433 9.85743 9.06425L11.4911 10.1833C12.1779 9.14225 13.2623 8.92667 14.0478 8.93425C15.026 8.94075 15.7627 9.22458 16.2404 9.77925C16.5871 10.1823 16.82 10.7402 16.9359 11.4432C16.0693 11.2959 15.1311 11.2504 14.1301 11.3078C11.3069 11.4703 9.49343 13.117 9.61477 15.4039C9.67652 16.5642 10.2539 17.563 11.2419 18.2152C12.0761 18.7666 13.1529 19.0352 14.2698 18.9746C15.7464 18.8933 16.9045 18.33 17.7127 17.3008C18.3258 16.5187 18.7137 15.5047 18.8848 14.2285C19.589 14.6532 20.109 15.2111 20.3983 15.8828C20.8879 17.0246 20.9161 18.9009 19.3853 20.4306C18.0442 21.7696 16.4322 22.3503 13.9958 22.3676C11.2928 22.3481 9.2486 21.4803 7.92043 19.7914C6.6746 18.2097 6.03218 15.9239 6.00835 13C6.03218 10.075 6.67568 7.79025 7.92043 6.2075C9.2486 4.51858 11.2928 3.65192 13.9958 3.63242C16.7182 3.653 18.7971 4.52292 20.1773 6.22158C20.8543 7.05358 21.3635 8.10008 21.7004 9.31992L23.6136 8.81075C23.2052 7.30817 22.5638 6.01358 21.6918 4.94C19.9227 2.7625 17.3227 1.64775 13.9893 1.625C10.6623 1.64775 8.10352 2.76792 6.38535 4.95192C4.85677 6.8965 4.06702 9.61675 4.04102 13.0076C4.06702 16.3984 4.85677 19.1035 6.38535 21.0481C8.1046 23.2321 10.6753 24.3523 14.0012 24.375C16.9598 24.3544 19.0441 23.5798 20.7612 21.8649C23.0091 19.6192 22.9408 16.8057 22.2009 15.0789C21.6322 13.7518 20.5001 12.6891 18.9726 12.0348L18.9715 12.0337ZM14.1637 16.9704C12.9265 17.0398 11.6417 16.4851 11.5778 15.2956C11.5312 14.4138 12.2061 13.4301 14.2395 13.3131C15.1585 13.2514 16.0817 13.3148 16.9836 13.5016C16.7496 16.4288 15.3748 16.9033 14.1637 16.9704Z" fill="white"/>
</g>
</svg>
