<svg width="22" height="23" viewBox="0 0 22 23" fill="none" xmlns="http://www.w3.org/2000/svg">
<path d="M15.3132 10.6823C15.1647 7.94425 13.6687 6.37675 11.157 6.36117C9.64269 6.352 8.37677 6.99367 7.60127 8.16975L8.9836 9.11667C9.56477 8.23575 10.4824 8.05333 11.1469 8.05975C11.9747 8.06525 12.598 8.30542 13.0023 8.77475C13.2956 9.11575 13.4927 9.58783 13.5908 10.1827C12.8574 10.0581 12.0636 10.0196 11.2166 10.0682C8.82777 10.2057 7.29327 11.599 7.39594 13.5341C7.44819 14.5158 7.93677 15.361 8.77277 15.9128C9.4786 16.3794 10.3898 16.6067 11.3349 16.5554C12.5843 16.4867 13.5642 16.01 14.248 15.1392C14.7669 14.4773 15.095 13.6193 15.2399 12.5395C15.8357 12.8988 16.2757 13.3709 16.5204 13.9393C16.9348 14.9054 16.9586 16.4931 15.6634 17.7874C14.5285 18.9204 13.1645 19.4117 11.1029 19.4264C8.81585 19.4099 7.0861 18.6757 5.96227 17.2466C4.9081 15.9082 4.36452 13.9741 4.34435 11.5C4.36452 9.025 4.90902 7.09175 5.96227 5.7525C7.0861 4.32342 8.81585 3.59008 11.1029 3.57358C13.4065 3.591 15.1656 4.32708 16.3334 5.76442C16.9064 6.46842 17.3372 7.35392 17.6223 8.38608L19.2411 7.95525C18.8955 6.68383 18.3529 5.58842 17.6149 4.68C16.118 2.8375 13.918 1.89425 11.0974 1.875C8.28235 1.89425 6.11719 2.84208 4.66335 4.69008C3.36994 6.3355 2.70169 8.63725 2.67969 11.5064C2.70169 14.3756 3.36994 16.6645 4.66335 18.3099C6.1181 20.1579 8.29335 21.1058 11.1075 21.125C13.6109 21.1076 15.3746 20.4522 16.8275 19.0011C18.7296 17.1008 18.6719 14.7203 18.0458 13.2591C17.5645 12.1362 16.6066 11.2369 15.3141 10.6833L15.3132 10.6823ZM11.245 14.8596C10.1982 14.9183 9.11102 14.4489 9.05694 13.4424C9.01752 12.6963 9.5886 11.8639 11.3092 11.7649C12.0868 11.7127 12.8679 11.7664 13.6311 11.9244C13.4331 14.4013 12.2699 14.8028 11.245 14.8596Z" fill="white"/>
</svg>
