<svg width="23" height="26" viewBox="0 0 23 26" fill="none" xmlns="http://www.w3.org/2000/svg">
<g id="fa6-brands:tiktok" clip-path="url(#clip0_601_162)">
<path id="Vector" d="M22.8743 10.6595C20.6386 10.6648 18.4578 9.96762 16.6399 8.66633V17.742C16.6392 19.4229 16.1255 21.0635 15.1672 22.4445C14.209 23.8256 12.852 24.8811 11.2776 25.4701C9.7033 26.0591 7.98667 26.1534 6.35729 25.7404C4.72791 25.3274 3.26344 24.4268 2.15971 23.1591C1.05598 21.8913 0.365592 20.3168 0.180865 18.6461C-0.00386281 16.9753 0.325874 15.288 1.12599 13.8098C1.9261 12.3315 3.15844 11.1328 4.65825 10.3738C6.15805 9.61481 7.85381 9.33181 9.5188 9.56262V14.1273C8.7569 13.8877 7.93875 13.8949 7.1812 14.148C6.42365 14.401 5.76543 14.887 5.30054 15.5365C4.83565 16.1859 4.58787 16.9657 4.59257 17.7644C4.59728 18.563 4.85423 19.3398 5.32674 19.9838C5.79924 20.6277 6.46314 21.1059 7.22362 21.35C7.9841 21.5941 8.80227 21.5917 9.5613 21.3431C10.3203 21.0945 10.9814 20.6124 11.4501 19.9657C11.9188 19.3189 12.1711 18.5407 12.1711 17.742V0H16.6399C16.6367 0.377376 16.6684 0.754237 16.7343 1.12582C16.8896 1.95532 17.2125 2.74443 17.6832 3.44486C18.1539 4.1453 18.7625 4.74235 19.4719 5.19949C20.4811 5.8668 21.6644 6.22248 22.8743 6.22223V10.6595Z" fill="white"/>
</g>
<defs>
<clipPath id="clip0_601_162">
<rect width="22.75" height="26" fill="white" transform="translate(0.125)"/>
</clipPath>
</defs>
</svg>
