<svg width="20" height="23" viewBox="0 0 20 23" fill="none" xmlns="http://www.w3.org/2000/svg">
<g clip-path="url(#clip0_601_99)">
<path d="M20.0003 9.51957C18.1086 9.5241 16.2632 8.93414 14.725 7.83305V15.5124C14.7245 16.9347 14.2898 18.323 13.4789 19.4915C12.6681 20.6601 11.5199 21.5533 10.1878 22.0516C8.85562 22.55 7.40309 22.6298 6.02438 22.2803C4.64567 21.9309 3.40651 21.1689 2.47258 20.0961C1.53865 19.0234 0.95448 17.6911 0.798172 16.2774C0.641864 14.8638 0.920872 13.436 1.59789 12.1852C2.27491 10.9344 3.31766 9.92002 4.58672 9.27782C5.85579 8.63561 7.29067 8.39615 8.6995 8.59144V12.4539C8.05481 12.2511 7.36254 12.2572 6.72153 12.4714C6.08053 12.6855 5.52357 13.0967 5.13021 13.6462C4.73684 14.1958 4.52717 14.8556 4.53116 15.5314C4.53514 16.2072 4.75256 16.8645 5.15237 17.4093C5.55219 17.9542 6.11395 18.3588 6.75743 18.5654C7.40091 18.7719 8.09321 18.7699 8.73546 18.5595C9.37771 18.3492 9.93707 17.9413 10.3337 17.394C10.7302 16.8468 10.9438 16.1882 10.9438 15.5124V0.5H14.725C14.7224 0.819318 14.7491 1.1382 14.8049 1.45262C14.9363 2.1545 15.2095 2.82221 15.6078 3.41489C16.0061 4.00757 16.5211 4.51276 17.1214 4.89957C17.9753 5.46422 18.9765 5.76518 20.0003 5.76496V9.51957Z" fill="white"/>
</g>
<defs>
<clipPath id="clip0_601_99">
<rect width="19.25" height="22" fill="white" transform="translate(0.75 0.5)"/>
</clipPath>
</defs>
</svg>
