<svg width="24" height="24" viewBox="0 0 24 24" fill="none" xmlns="http://www.w3.org/2000/svg">
<g id="arrow down">
<path id="Vector" d="M16.0608 2.45401C16.342 2.7353 16.5 3.11676 16.5 3.51451C16.5 3.91226 16.342 4.29372 16.0608 4.57501L8.63582 12L16.0608 19.425C16.3341 19.7079 16.4852 20.0868 16.4818 20.4801C16.4784 20.8734 16.3207 21.2496 16.0425 21.5277C15.7644 21.8059 15.3882 21.9636 14.9949 21.967C14.6016 21.9704 14.2227 21.8192 13.9398 21.546L5.45432 13.0605C5.17311 12.7792 5.01514 12.3978 5.01514 12C5.01514 11.6023 5.17311 11.2208 5.45432 10.9395L13.9398 2.45401C14.2211 2.1728 14.6026 2.01483 15.0003 2.01483C15.3981 2.01483 15.7795 2.1728 16.0608 2.45401Z" fill="white"/>
</g>
</svg>
