<svg width="20" height="20" viewBox="0 0 20 20" fill="none" xmlns="http://www.w3.org/2000/svg">
<g id="arrow down">
<path id="Vector" d="M2.04567 6.61623C2.28008 6.38189 2.59797 6.25024 2.92942 6.25024C3.26088 6.25024 3.57876 6.38189 3.81317 6.61623L10.0007 12.8037L16.1882 6.61623C16.4239 6.38853 16.7397 6.26254 17.0674 6.26538C17.3952 6.26823 17.7087 6.39969 17.9404 6.63145C18.1722 6.86321 18.3037 7.17673 18.3065 7.50448C18.3094 7.83222 18.1834 8.14797 17.9557 8.38373L10.8844 15.455C10.65 15.6893 10.3321 15.821 10.0007 15.821C9.66922 15.821 9.35133 15.6893 9.11692 15.455L2.04567 8.38373C1.81133 8.14932 1.67969 7.83143 1.67969 7.49998C1.67969 7.16852 1.81133 6.85064 2.04567 6.61623Z" fill="white"/>
</g>
</svg>
