<svg width="24" height="24" viewBox="0 0 24 24" fill="none" xmlns="http://www.w3.org/2000/svg">
<g id="arrow down">
<path id="Vector" d="M2.4548 7.93955C2.7361 7.65834 3.11756 7.50037 3.5153 7.50037C3.91305 7.50037 4.29451 7.65834 4.5758 7.93955L12.0008 15.3645L19.4258 7.93955C19.7087 7.66631 20.0876 7.51512 20.4809 7.51853C20.8742 7.52195 21.2504 7.67971 21.5285 7.95782C21.8066 8.23593 21.9644 8.61215 21.9678 9.00544C21.9712 9.39874 21.82 9.77764 21.5468 10.0605L13.0613 18.546C12.78 18.8273 12.3986 18.9852 12.0008 18.9852C11.6031 18.9852 11.2216 18.8273 10.9403 18.546L2.4548 10.0605C2.1736 9.77925 2.01562 9.39779 2.01562 9.00005C2.01562 8.6023 2.1736 8.22084 2.4548 7.93955Z" fill="white"/>
</g>
</svg>
