<svg width="110" height="19" viewBox="0 0 110 19" fill="none" xmlns="http://www.w3.org/2000/svg">
<path d="M3.74316 18.5H0.442383V0.294922H3.74316V18.5ZM22.4434 18.5H19.1426V10.8828C19.1426 10.4512 19.0664 10.0661 18.9141 9.72754C18.7702 9.38053 18.5713 9.08431 18.3174 8.83887C18.0635 8.59342 17.763 8.40723 17.416 8.28027C17.0775 8.14486 16.7093 8.07715 16.3115 8.07715H10.5352V18.5H7.23438V6.41406C7.23438 6.18555 7.27669 5.97396 7.36133 5.7793C7.44596 5.57617 7.56445 5.40267 7.7168 5.25879C7.86914 5.10645 8.04688 4.98796 8.25 4.90332C8.45312 4.81868 8.66895 4.77637 8.89746 4.77637H16.3369C16.7516 4.77637 17.1875 4.82292 17.6445 4.91602C18.11 5.00911 18.5671 5.16146 19.0156 5.37305C19.4727 5.57617 19.9043 5.83854 20.3105 6.16016C20.7253 6.47331 21.0892 6.8584 21.4023 7.31543C21.724 7.764 21.9779 8.28451 22.1641 8.87695C22.3503 9.4694 22.4434 10.138 22.4434 10.8828V18.5ZM38.6045 13.8662C38.6045 14.4333 38.5326 14.9453 38.3887 15.4023C38.2448 15.8509 38.0544 16.2487 37.8174 16.5957C37.5804 16.9342 37.3053 17.2262 36.9922 17.4717C36.679 17.7087 36.349 17.9033 36.002 18.0557C35.6634 18.208 35.3164 18.3223 34.9609 18.3984C34.6139 18.4661 34.2839 18.5 33.9707 18.5H25.0332V15.1992H33.9453C34.3939 15.1992 34.7324 15.085 34.9609 14.8564C35.1895 14.6279 35.3037 14.2979 35.3037 13.8662C35.2614 12.986 34.8171 12.5459 33.9707 12.5459H28.8545C28.1266 12.5459 27.5088 12.4189 27.001 12.165C26.4932 11.9111 26.0785 11.5938 25.7568 11.2129C25.4437 10.832 25.2152 10.4215 25.0713 9.98145C24.9359 9.54134 24.8682 9.13086 24.8682 8.75C24.8682 8.01367 24.9993 7.39583 25.2617 6.89648C25.5241 6.38867 25.8542 5.97819 26.252 5.66504C26.6497 5.35189 27.0814 5.1276 27.5469 4.99219C28.0124 4.84831 28.4482 4.77637 28.8545 4.77637H36.9668V8.07715H28.8799C28.7106 8.07715 28.5752 8.09831 28.4736 8.14062C28.3805 8.17448 28.3086 8.22526 28.2578 8.29297C28.2155 8.35221 28.1901 8.41992 28.1816 8.49609C28.1732 8.5638 28.1689 8.63151 28.1689 8.69922C28.1774 8.83464 28.2028 8.94043 28.2451 9.0166C28.2874 9.09277 28.3382 9.14779 28.3975 9.18164C28.4652 9.21549 28.5371 9.23665 28.6133 9.24512C28.6979 9.24512 28.7783 9.24512 28.8545 9.24512H33.9707C34.8171 9.24512 35.5365 9.39746 36.1289 9.70215C36.7214 10.0068 37.1995 10.3919 37.5635 10.8574C37.9274 11.3145 38.1898 11.8138 38.3506 12.3555C38.5199 12.8971 38.6045 13.4007 38.6045 13.8662ZM53.1787 8.07715H47.415V18.5H44.0762V8.07715H39.7852V4.77637H44.0762V0.294922H47.415V4.77637H53.1787V8.07715ZM68.7305 13.9551C68.7305 14.4121 68.6501 14.9072 68.4893 15.4404C68.3285 15.9652 68.0661 16.4561 67.7021 16.9131C67.3467 17.3617 66.877 17.7383 66.293 18.043C65.7174 18.3477 65.015 18.5 64.1855 18.5H58.2314C57.7744 18.5 57.2793 18.4196 56.7461 18.2588C56.2214 18.098 55.7305 17.8398 55.2734 17.4844C54.8249 17.1204 54.4482 16.6507 54.1436 16.0752C53.8389 15.4912 53.6865 14.7845 53.6865 13.9551C53.6865 13.498 53.7669 13.0029 53.9277 12.4697C54.0885 11.9365 54.3467 11.4456 54.7021 10.9971C55.0661 10.54 55.5358 10.1592 56.1113 9.85449C56.6953 9.5498 57.402 9.39746 58.2314 9.39746H64.1855V12.5459H58.2314C57.7829 12.5459 57.4359 12.6855 57.1904 12.9648C56.945 13.2357 56.8223 13.5742 56.8223 13.9805C56.8223 14.4121 56.9619 14.7507 57.2412 14.9961C57.529 15.2331 57.8675 15.3516 58.2568 15.3516H64.1855C64.6341 15.3516 64.9811 15.2161 65.2266 14.9453C65.472 14.6745 65.5947 14.3359 65.5947 13.9297V9.32129C65.5947 8.88965 65.4593 8.54688 65.1885 8.29297C64.9261 8.03906 64.5918 7.91211 64.1855 7.91211H56.9365V4.77637H64.1855C64.6426 4.77637 65.1335 4.85677 65.6582 5.01758C66.1914 5.17839 66.6823 5.44076 67.1309 5.80469C67.5879 6.16016 67.9688 6.62988 68.2734 7.21387C68.5781 7.78939 68.7305 8.49186 68.7305 9.32129V13.9551ZM88.3701 3.5957H81.0957V18.5H77.7949V3.5957H70.5078V0.294922H88.3701V3.5957ZM109.178 0.294922L100.558 17.8525C100.422 18.1234 100.219 18.3392 99.9482 18.5C99.6859 18.6693 99.3939 18.7539 99.0723 18.7539C98.7591 18.7539 98.4671 18.6693 98.1963 18.5C97.9339 18.3392 97.7308 18.1234 97.5869 17.8525L88.9795 0.294922H92.6738L99.0723 13.4092L105.496 0.294922H109.178Z" fill="#0A86EF"/>
</svg>
