<svg width="110" height="19" viewBox="0 0 110 19" fill="none" xmlns="http://www.w3.org/2000/svg">
<path d="M4.24316 18.5H0.942383V0.294922H4.24316V18.5ZM22.9434 18.5H19.6426V10.8828C19.6426 10.4512 19.5664 10.0661 19.4141 9.72754C19.2702 9.38053 19.0713 9.08431 18.8174 8.83887C18.5635 8.59342 18.263 8.40723 17.916 8.28027C17.5775 8.14486 17.2093 8.07715 16.8115 8.07715H11.0352V18.5H7.73438V6.41406C7.73438 6.18555 7.77669 5.97396 7.86133 5.7793C7.94596 5.57617 8.06445 5.40267 8.2168 5.25879C8.36914 5.10645 8.54688 4.98796 8.75 4.90332C8.95312 4.81868 9.16895 4.77637 9.39746 4.77637H16.8369C17.2516 4.77637 17.6875 4.82292 18.1445 4.91602C18.61 5.00911 19.0671 5.16146 19.5156 5.37305C19.9727 5.57617 20.4043 5.83854 20.8105 6.16016C21.2253 6.47331 21.5892 6.8584 21.9023 7.31543C22.224 7.764 22.4779 8.28451 22.6641 8.87695C22.8503 9.4694 22.9434 10.138 22.9434 10.8828V18.5ZM39.1045 13.8662C39.1045 14.4333 39.0326 14.9453 38.8887 15.4023C38.7448 15.8509 38.5544 16.2487 38.3174 16.5957C38.0804 16.9342 37.8053 17.2262 37.4922 17.4717C37.179 17.7087 36.849 17.9033 36.502 18.0557C36.1634 18.208 35.8164 18.3223 35.4609 18.3984C35.1139 18.4661 34.7839 18.5 34.4707 18.5H25.5332V15.1992H34.4453C34.8939 15.1992 35.2324 15.085 35.4609 14.8564C35.6895 14.6279 35.8037 14.2979 35.8037 13.8662C35.7614 12.986 35.3171 12.5459 34.4707 12.5459H29.3545C28.6266 12.5459 28.0088 12.4189 27.501 12.165C26.9932 11.9111 26.5785 11.5938 26.2568 11.2129C25.9437 10.832 25.7152 10.4215 25.5713 9.98145C25.4359 9.54134 25.3682 9.13086 25.3682 8.75C25.3682 8.01367 25.4993 7.39583 25.7617 6.89648C26.0241 6.38867 26.3542 5.97819 26.752 5.66504C27.1497 5.35189 27.5814 5.1276 28.0469 4.99219C28.5124 4.84831 28.9482 4.77637 29.3545 4.77637H37.4668V8.07715H29.3799C29.2106 8.07715 29.0752 8.09831 28.9736 8.14062C28.8805 8.17448 28.8086 8.22526 28.7578 8.29297C28.7155 8.35221 28.6901 8.41992 28.6816 8.49609C28.6732 8.5638 28.6689 8.63151 28.6689 8.69922C28.6774 8.83464 28.7028 8.94043 28.7451 9.0166C28.7874 9.09277 28.8382 9.14779 28.8975 9.18164C28.9652 9.21549 29.0371 9.23665 29.1133 9.24512C29.1979 9.24512 29.2783 9.24512 29.3545 9.24512H34.4707C35.3171 9.24512 36.0365 9.39746 36.6289 9.70215C37.2214 10.0068 37.6995 10.3919 38.0635 10.8574C38.4274 11.3145 38.6898 11.8138 38.8506 12.3555C39.0199 12.8971 39.1045 13.4007 39.1045 13.8662ZM53.6787 8.07715H47.915V18.5H44.5762V8.07715H40.2852V4.77637H44.5762V0.294922H47.915V4.77637H53.6787V8.07715ZM69.2305 13.9551C69.2305 14.4121 69.1501 14.9072 68.9893 15.4404C68.8285 15.9652 68.5661 16.4561 68.2021 16.9131C67.8467 17.3617 67.377 17.7383 66.793 18.043C66.2174 18.3477 65.515 18.5 64.6855 18.5H58.7314C58.2744 18.5 57.7793 18.4196 57.2461 18.2588C56.7214 18.098 56.2305 17.8398 55.7734 17.4844C55.3249 17.1204 54.9482 16.6507 54.6436 16.0752C54.3389 15.4912 54.1865 14.7845 54.1865 13.9551C54.1865 13.498 54.2669 13.0029 54.4277 12.4697C54.5885 11.9365 54.8467 11.4456 55.2021 10.9971C55.5661 10.54 56.0358 10.1592 56.6113 9.85449C57.1953 9.5498 57.902 9.39746 58.7314 9.39746H64.6855V12.5459H58.7314C58.2829 12.5459 57.9359 12.6855 57.6904 12.9648C57.445 13.2357 57.3223 13.5742 57.3223 13.9805C57.3223 14.4121 57.4619 14.7507 57.7412 14.9961C58.029 15.2331 58.3675 15.3516 58.7568 15.3516H64.6855C65.1341 15.3516 65.4811 15.2161 65.7266 14.9453C65.972 14.6745 66.0947 14.3359 66.0947 13.9297V9.32129C66.0947 8.88965 65.9593 8.54688 65.6885 8.29297C65.4261 8.03906 65.0918 7.91211 64.6855 7.91211H57.4365V4.77637H64.6855C65.1426 4.77637 65.6335 4.85677 66.1582 5.01758C66.6914 5.17839 67.1823 5.44076 67.6309 5.80469C68.0879 6.16016 68.4688 6.62988 68.7734 7.21387C69.0781 7.78939 69.2305 8.49186 69.2305 9.32129V13.9551ZM88.8701 3.5957H81.5957V18.5H78.2949V3.5957H71.0078V0.294922H88.8701V3.5957ZM109.678 0.294922L101.058 17.8525C100.922 18.1234 100.719 18.3392 100.448 18.5C100.186 18.6693 99.8939 18.7539 99.5723 18.7539C99.2591 18.7539 98.9671 18.6693 98.6963 18.5C98.4339 18.3392 98.2308 18.1234 98.0869 17.8525L89.4795 0.294922H93.1738L99.5723 13.4092L105.996 0.294922H109.678Z" fill="white"/>
</svg>
