<svg width="50" height="50" viewBox="0 0 50 50" fill="none" xmlns="http://www.w3.org/2000/svg">
<path d="M25 3.125C20.6735 3.125 16.4442 4.40795 12.8469 6.8116C9.24959 9.21526 6.44581 12.6317 4.79014 16.6288C3.13448 20.6259 2.70128 25.0243 3.54533 29.2676C4.38938 33.5109 6.47277 37.4087 9.53205 40.468C12.5913 43.5272 16.4891 45.6106 20.7324 46.4547C24.9757 47.2987 29.3741 46.8655 33.3712 45.2099C37.3683 43.5542 40.7848 40.7504 43.1884 37.1531C45.5921 33.5558 46.875 29.3265 46.875 25C46.875 19.1984 44.5703 13.6344 40.468 9.53204C36.3656 5.42968 30.8016 3.125 25 3.125ZM36.6359 26.3984L17.8859 35.7734C17.6477 35.8925 17.3829 35.9487 17.1168 35.9366C16.8507 35.9246 16.5921 35.8447 16.3656 35.7046C16.1391 35.5645 15.9521 35.3688 15.8225 35.1361C15.6929 34.9033 15.6249 34.6414 15.625 34.375V15.625C15.6252 15.3588 15.6933 15.097 15.823 14.8645C15.9528 14.632 16.1398 14.4365 16.3663 14.2966C16.5927 14.1566 16.8512 14.0769 17.1172 14.0649C17.3832 14.0529 17.6478 14.1091 17.8859 14.2281L36.6359 23.6031C36.8951 23.733 37.1131 23.9325 37.2654 24.1792C37.4177 24.4259 37.4983 24.7101 37.4983 25C37.4983 25.2899 37.4177 25.5741 37.2654 25.8208C37.1131 26.0675 36.8951 26.267 36.6359 26.3969V26.3984Z" fill="white"/>
</svg>
